<?xml version="1.0" encoding="utf-8"?>
<svg viewBox="0 0 1024 1024" xmlns="http://www.w3.org/2000/svg">
    <path d="M 78.152 547.27 C 97.096 547.27 113.407 563.366 113.407 582.17 L 113.407 708.893 C 113.407 723.087 121.453 736.842 133.887 742.988 L 491.556 948.877 C 504.123 956.636 520.005 956.579 532.516 948.73 L 891.647 744.964 C 904.108 738.032 912 725.051 912.42 710.795 L 912.42 640.921 C 912.42 622.191 928.731 606.094 947.675 606.094 C 966.546 606.094 982.856 622.191 982.856 640.921 L 982.856 710.795 C 982.477 750.018 961.202 786.055 927.048 805.325 L 567.771 1009.239 C 533.832 1028.92 490.093 1028.92 456.155 1009.239 L 96.877 805.252 C 62.746 785.995 41.474 749.991 41.069 710.795 L 41.069 583.121 C 43.483 562.269 58.111 547.196 78.152 547.196 L 78.152 547.27 Z M 474.879 157.076 C 498.036 144.221 526.182 144.221 549.339 157.076 L 804.388 302.237 C 826.77 316.87 841.691 340.795 841.691 366.55 L 841.691 656.872 C 841.691 684.382 828.598 708.307 804.388 721.184 L 549.412 866.272 C 526.255 879.127 498.109 879.127 474.952 866.272 L 219.83 723.014 C 197.448 708.307 182.527 684.382 182.527 658.628 L 182.527 366.55 C 182.527 338.966 197.448 315.114 219.83 302.164 L 474.879 157.076 Z M 73.252 512.15 C 129.557 512.15 164.748 573.121 136.595 621.898 C 123.53 644.536 99.383 658.482 73.252 658.482 C 16.946 658.482 -18.244 597.51 9.908 548.732 C 22.974 526.095 47.12 512.15 73.252 512.15 Z M 456.155 14.768 C 490.756 -4.923 533.169 -4.923 567.771 14.768 L 927.122 218.681 C 961.247 237.971 982.492 274.005 982.856 313.212 L 982.856 373.208 C 1033.486 397.851 1038.461 468.079 991.811 499.618 C 945.161 531.157 881.873 500.352 877.894 444.17 C 876.028 417.829 888.496 392.526 910.518 377.964 L 910.518 315.041 C 910.564 300.749 902.674 287.615 890.038 280.946 L 532.37 75.057 C 519.803 67.297 503.92 67.354 491.41 75.203 L 132.278 279.043 C 119.846 285.994 111.984 298.972 111.579 313.212 L 111.579 383.012 C 111.109 402.231 95.54 417.643 76.324 417.912 C 57.107 417.643 41.539 402.231 41.069 383.012 L 41.069 313.212 C 41.069 274.434 62.427 238.656 96.877 218.681 L 456.155 14.768 Z"
          transform="matrix(0.9999999999999999, 0, 0, 0.9999999999999999, 0, 7.105427357601002e-15)"/>
    <path d="M 621.016 554.058 L 564.368 554.058 L 516.029 596.621 C 515.759 597.089 515.759 597.664 516.029 598.131 C 516.158 599.284 517.135 600.154 518.295 600.147 L 621.52 600.147 C 633.102 600.146 642.53 609.464 642.668 621.05 C 642.532 632.676 633.143 642.069 621.52 642.205 L 417.587 642.205 C 412.958 642.069 409.277 638.275 409.279 633.642 C 409.158 632.554 409.158 631.457 409.279 630.368 L 675.902 404.965 C 684.257 397.514 688.792 386.682 688.238 375.499 C 688.238 353.522 670.428 335.707 648.459 335.707 L 402.985 335.707 C 351.334 332.541 315.626 386.493 338.71 432.821 C 350.746 456.977 376.054 471.592 402.985 469.941 L 459.632 469.941 L 507.972 427.379 C 508.081 426.881 508.081 426.366 507.972 425.868 C 507.859 424.806 507.02 423.966 505.958 423.853 L 402.985 423.853 C 391.402 423.854 381.974 414.535 381.836 402.95 C 381.972 391.323 391.362 381.931 402.985 381.795 L 606.414 381.795 C 611.043 381.931 614.724 385.725 614.722 390.358 C 614.843 391.445 614.843 392.543 614.722 393.632 L 348.099 619.035 C 339.744 626.485 335.209 637.318 335.763 648.501 C 335.763 670.478 353.573 688.293 375.542 688.293 L 621.016 688.293 C 672.667 691.459 708.375 637.507 685.291 591.179 C 673.255 567.024 647.947 552.408 621.016 554.058"
          fill="#ffffff" style="" transform="matrix(0.9999999999999999, 0, 0, 0.9999999999999999, 0, 7.105427357601002e-15)"/>
</svg>
