<?xml version="1.0" encoding="utf-8"?>
<svg viewBox="0 0 1024 1024" xmlns="http://www.w3.org/2000/svg">
    <path d="M789.12 618.88h-144l-122.88 108.16a3.84 3.84 0 0 0 0 3.84 5.76 5.76 0 0 0 5.76 5.12h262.4a53.76 53.76 0 0 1 53.76 53.12 54.4 54.4 0 0 1-53.76 53.76h-518.4a21.76 21.76 0 0 1-21.12-21.76 37.76 37.76 0 0 1 0-8.32l677.76-572.8A94.08 94.08 0 0 0 960 165.12 101.12 101.12 0 0 0 858.88 64H234.88a170.88 170.88 0 1 0 0 341.12h144l122.88-108.16a8.96 8.96 0 0 0 0-3.84 5.76 5.76 0 0 0-5.12-5.12H234.88a53.76 53.76 0 0 1-53.76-53.12 54.4 54.4 0 0 1 53.76-53.76h517.12a21.76 21.76 0 0 1 21.12 21.76 37.76 37.76 0 0 1 0 8.32L95.36 784A94.08 94.08 0 0 0 64 858.88 101.12 101.12 0 0 0 165.12 960h624a170.88 170.88 0 1 0 0-341.12"/>
</svg>
